# xmcd
#
# Track frame offsets:
#	150
#	19037
#	37580
#	57454
#	78779
#	94998
#	113564
#	132928
#	154953
#	176795
#	199651
#	222901
#
# Disc length: 3489 seconds
#
# Revision: 1
# Processed by: cddbd v1.5.2PL0 Copyright (c) Steve Scherf et al.
# Submitted via: audiograbber 1.81.02
#
DISCID=990d9f0c
DTITLE=Once Nothing - First Came The Law
DYEAR=2008
DGENRE=Contemporary ChristianChristian Rock
TTITLE0=The Intimidator
TTITLE1=Avoid Me Like The Plague
TTITLE2=Juliet Or At Least What's Left Of Her
TTITLE3=Gunfire Is The Sound Of Freedom
TTITLE4=The Dust Of A Town
TTITLE5=My Sweet Medusa
TTITLE6=Columbus Wasn't Looking For America
TTITLE7=Then There Were Nine
TTITLE8=All My Heroes Are Cowboys
TTITLE9=The Thruth About Me Or Someone Like Me
TTITLE10=Whiskey Breath
TTITLE11=And Then Came Grace
EXTD=www.gerth.de, Art. Nr. 104574
EXTT0=
EXTT1=
EXTT2=
EXTT3=
EXTT4=
EXTT5=
EXTT6=
EXTT7=
EXTT8=
EXTT9=
EXTT10=
EXTT11=
PLAYORDER=
